<?xml version="1.0" encoding="UTF-8"?>
<svg width="200" height="200" viewBox="0 0 200 200" xmlns="http://www.w3.org/2000/svg">
  <!-- Bowl -->
  <path d="M40 120 Q100 140 160 120 L160 160 Q100 180 40 160 Z" fill="#f3f4f6" stroke="#9ca3af" stroke-width="2"/>
  
  <!-- Ice Cream Scoops -->
  <circle cx="80" cy="100" r="25" fill="#fca5a5"/> <!-- Strawberry -->
  <circle cx="100" cy="80" r="25" fill="#fde68a"/> <!-- Vanilla -->
  <circle cx="120" cy="100" r="25" fill="#a5b4fc"/> <!-- Blueberry -->
  
  <!-- Banana Slices -->
  <path d="M60 110 Q70 100 80 110 Q90 120 100 110" fill="#fde047" stroke="#ca8a04" stroke-width="1"/>
  <path d="M100 110 Q110 100 120 110 Q130 120 140 110" fill="#fde047" stroke="#ca8a04" stroke-width="1"/>
  
  <!-- Whipped Cream -->
  <path d="M85 70 Q90 60 95 70 Q100 80 105 70 Q110 60 115 70" fill="white" stroke="#e5e7eb" stroke-width="1"/>
  
  <!-- Cherry -->
  <circle cx="100" cy="60" r="5" fill="#dc2626"/>
</svg>
